<svg width="36" height="36" viewBox="0 0 36 36" fill="none" xmlns="http://www.w3.org/2000/svg">
<circle cx="18" cy="18" r="17.5" fill="white" stroke="#00486D"/>
<path fill-rule="evenodd" clip-rule="evenodd" d="M14.5664 12.0039V15.5044C14.5664 16.7539 15.6125 17.7692 16.8907 17.7692H21.3529C22.9509 17.7692 24.258 19.1303 24.258 20.6928V24.001C27.3538 23.5006 29.7242 20.9528 29.7242 18.0077C29.7242 14.7056 26.7431 12.0039 23.1006 12.0039H14.5664Z" fill="#E63934"/>
<path fill-rule="evenodd" clip-rule="evenodd" d="M15.1214 18.1976C13.5234 18.1976 12.2163 16.9393 12.2163 15.3765V12C8.76155 12.192 6 14.8139 6 17.992C6 21.2942 8.98078 23.9965 12.6239 23.9965H21.894V20.4706C21.894 19.2204 20.8482 18.1976 19.5696 18.1976H15.1214Z" fill="#00486D"/>
</svg>
