<svg width="36" height="36" viewBox="0 0 36 36" fill="none" xmlns="http://www.w3.org/2000/svg">
<circle cx="18" cy="18" r="18" fill="black"/>
<g clip-path="url(#clip0_2670_77402)">
<path fill-rule="evenodd" clip-rule="evenodd" d="M18.8135 10.5597V17.4304H33.4151V18.5712H30.7636C30.4374 23.3758 26.1331 27.2807 20.5159 28.1447V26.5432C24.4564 25.6298 27.4103 22.4386 27.6852 18.5712H18.8135V25.5784H18.8017V29.6711H18.8135V30.986H17.6134V28.3207C11.1697 28.0696 6.00335 23.8523 5.65338 18.5712H3V17.4304H17.6015V9.20924C13.4712 9.4465 10.0566 12.1493 9.03042 15.7537H5.94008C7.15407 11.2853 11.8697 7.92011 17.6134 7.69471V5.01562H18.8135V6.46688H18.8017V10.5597H18.8135ZM8.74175 18.5712C9.04228 22.9882 12.8583 26.5057 17.5995 26.7924V18.5712H8.74175ZM30.4868 15.7537H27.3965C26.5206 12.6634 23.8692 10.2354 20.5278 9.45836V7.85684C25.4707 8.60817 29.3994 11.7499 30.4868 15.7537Z" fill="white"/>
</g>
<defs>
<clipPath id="clip0_2670_77402">
<rect width="30.4289" height="26" fill="white" transform="translate(3 5)"/>
</clipPath>
</defs>
</svg>
